# 3ds Max Wavefront OBJ Exporter v0.97b - (c)2007 guruware
# File Created: 28.03.2014 20:34:01

mtllib window2 ext.mtl

#
# object WINDOW001
#

v  -4.2531 -4.8921 32.7475
v  4.5180 -4.8921 32.7475
v  6.4459 1.4868 32.8912
v  -6.1810 1.4868 32.8912
v  -8.4961 -0.5029 32.6264
v  -14.3543 -4.0944 35.3869
v  -15.2661 -4.8498 35.3869
v  -15.6763 -5.6370 35.3869
v  -15.6678 -6.5246 35.3869
v  -15.1979 -7.6114 35.3869
v  -5.5932 -5.4458 32.6264
v  -11.3587 -8.9805 35.3869
v  -14.8757 -8.1369 35.3869
v  -14.1203 -9.0487 35.3869
v  -13.3331 -9.4589 35.3869
v  -12.4455 -9.4504 35.3869
v  5.8581 -5.4458 32.6264
v  11.6236 -8.9805 35.3869
v  12.7104 -9.4504 35.3869
v  13.5980 -9.4589 35.3869
v  14.3852 -9.0487 35.3869
v  15.1406 -8.1369 35.3869
v  8.7610 -0.5029 32.6264
v  14.6192 -4.0944 35.3869
v  15.4628 -7.6114 35.3869
v  15.9327 -6.5246 35.3869
v  15.9412 -5.6370 35.3869
v  15.5310 -4.8498 35.3869
v  8.7610 3.4765 32.6264
v  14.6192 7.0680 35.3869
v  15.5310 7.8234 35.3869
v  15.9412 8.6106 35.3869
v  15.9327 9.4982 35.3869
v  15.4628 10.5850 35.3869
v  5.8581 8.4194 32.6264
v  11.6236 11.9541 35.3869
v  15.1406 11.1105 35.3869
v  14.3852 12.0223 35.3869
v  13.5980 12.4325 35.3869
v  12.7104 12.4240 35.3869
v  -5.5932 8.4194 32.6264
v  -11.3587 11.9541 35.3869
v  -12.4455 12.4240 35.3869
v  -13.3331 12.4325 35.3869
v  -14.1203 12.0223 35.3869
v  -14.7546 11.2692 35.3869
v  -8.4961 3.4765 32.6264
v  -14.3543 7.0680 35.3869
v  -15.1979 10.5850 35.3869
v  -15.6678 9.4982 35.3869
v  -15.6763 8.6106 35.3869
v  -15.2661 7.8234 35.3869
v  -4.2531 -4.8921 32.6264
v  -6.1810 1.4868 32.6264
v  4.5180 -4.8921 32.6264
v  6.4459 1.4868 32.6264
v  4.5180 7.8657 32.6264
v  -4.2531 7.8657 32.6264
v  4.5180 7.8657 32.8912
v  -4.2531 7.8657 32.8912
# 60 vertices

vn -0.0000 -0.0225 0.9997
vn -0.0000 -0.0113 0.9999
vn 0.1053 0.0351 0.9938
vn 0.6018 -0.7264 0.3321
vn 0.5294 -0.3274 0.7827
vn 0.3902 -0.0515 0.9193
vn 0.2993 0.0794 0.9508
vn 0.1850 0.1638 0.9690
vn 0.0991 0.0895 0.9910
vn 0.1188 0.3330 0.9354
vn -0.0000 -0.0000 1.0000
vn 0.0000 0.0000 1.0000
vn 0.0000 -0.0000 1.0000
vn -0.0936 0.0869 0.9918
vn 0.3750 0.8673 0.3274
vn 0.0523 0.6259 0.7782
vn -0.1326 0.3753 0.9174
vn -0.2089 0.2333 0.9497
vn -0.2309 0.0896 0.9689
vn -0.1095 0.0385 0.9932
vn -0.3461 -0.0446 0.9371
vn -0.1053 -0.0351 0.9938
vn -0.6018 0.7264 0.3320
vn -0.5294 0.3274 0.7827
vn -0.3902 0.0514 0.9193
vn -0.2993 -0.0794 0.9508
vn -0.1850 -0.1638 0.9690
vn -0.0991 -0.0895 0.9910
vn -0.1188 -0.3330 0.9354
vn 0.0939 -0.0869 0.9918
vn -0.3750 -0.8673 0.3274
vn -0.0523 -0.6259 0.7782
vn 0.1326 -0.3753 0.9174
vn 0.2082 -0.2347 0.9495
vn 0.2303 -0.0939 0.9686
vn 0.1099 -0.0390 0.9932
vn 0.3352 0.0319 0.9416
vn -0.9572 -0.2893 -0.0000
vn 0.9572 -0.2893 -0.0000
vn 0.9572 -0.2893 0.0000
vn 0.9572 0.2893 -0.0000
vn 0.0000 1.0000 -0.0000
vn -0.9572 0.2893 -0.0000
# 43 vertex normals

vt 0.9412 0.3647 0.0000
vt 0.9412 0.6353 0.0000
vt 0.9613 0.6948 0.0000
vt 0.9613 0.3052 0.0000
vt 0.9244 0.2337 0.0000
vt 0.9244 0.0529 0.0000
vt 0.9244 0.0248 0.0000
vt 0.9244 0.0121 0.0000
vt 0.9244 0.0124 0.0000
vt 0.9244 0.0269 0.0000
vt 0.9244 0.3233 0.0000
vt 0.9244 0.1454 0.0000
vt 0.9244 0.0368 0.0000
vt 0.9244 0.0601 0.0000
vt 0.9244 0.0844 0.0000
vt 0.9244 0.1118 0.0000
vt 0.9244 0.6767 0.0000
vt 0.9244 0.8546 0.0000
vt 0.9244 0.8882 0.0000
vt 0.9244 0.9156 0.0000
vt 0.9244 0.9399 0.0000
vt 0.9244 0.9632 0.0000
vt 0.9244 0.7663 0.0000
vt 0.9244 0.9471 0.0000
vt 0.9244 0.9731 0.0000
vt 0.9244 0.9876 0.0000
vt 0.9244 0.9879 0.0000
vt 0.9244 0.9752 0.0000
vt 0.9244 0.0405 0.0000
vt 0.9244 0.3647 0.0000
vt 0.9244 0.3052 0.0000
vt 0.9244 0.6353 0.0000
vt 0.9244 0.6948 0.0000
vt 0.9613 0.6353 0.0000
vt 0.9613 0.3647 0.0000
vt 0.9244 0.5000 0.0000
vt 0.9244 0.2187 0.0000
vt 0.9412 0.2187 0.0000
vt 0.9613 0.5000 0.0000
vt 0.1692 0.0000 0.0000
vt 0.0000 0.2856 0.0000
vt 0.1692 1.0000 0.0000
vt 0.7813 0.6353 0.0000
vt 0.7813 0.3647 0.0000
vt 0.9244 0.7813 0.0000
vt 0.9613 0.7813 0.0000
# 46 texture coords

g WINDOW001
usemtl 04___Default
s 1
f 1/1/1 2/2/1 3/3/2 4/4/2 
f 5/5/3 6/6/4 7/7/5 8/8/6 
f 5/5/3 8/8/6 9/9/7 10/10/8 
f 11/11/9 5/5/3 10/10/8 12/12/10 
f 10/10/8 13/13/11 14/14/12 15/15/13 
f 10/10/8 15/15/13 16/16/11 12/12/10 
f 17/17/14 18/18/15 19/19/16 20/20/17 
f 17/17/14 20/20/17 21/21/18 22/22/19 
f 23/23/20 17/17/14 22/22/19 24/24/21 
f 22/22/19 25/25/13 26/26/11 27/27/11 
f 22/22/19 27/27/11 28/28/11 24/24/21 
f 29/23/22 30/24/23 31/28/24 32/27/25 
f 29/23/22 32/27/25 33/26/26 34/25/27 
f 35/17/28 29/23/22 34/25/27 36/18/29 
f 34/25/27 37/22/12 38/21/12 39/20/13 
f 34/25/27 39/20/13 40/19/11 36/18/29 
f 41/11/30 42/12/31 43/16/32 44/15/33 
f 41/11/30 44/15/33 45/14/34 46/29/35 
f 47/5/36 41/11/30 46/29/35 48/6/37 
f 46/29/35 49/10/13 50/9/13 51/8/11 
f 46/29/35 51/8/11 52/7/11 48/6/37 
f 5/5/3 11/11/9 53/30/11 54/31/13 
f 11/11/9 17/17/14 55/32/13 53/30/11 
f 17/17/14 23/23/20 56/33/11 55/32/13 
f 23/23/20 29/23/22 56/33/11 
f 29/23/22 35/17/28 57/32/11 56/33/11 
f 35/17/28 41/11/30 58/30/13 57/32/11 
f 41/11/30 47/5/36 54/31/13 58/30/13 
f 47/5/36 5/5/3 54/31/13 
f 3/3/2 59/34/11 60/35/11 4/4/2 
s 2
f 54/36/38 53/37/38 1/38/38 4/39/38 
f 55/40/39 56/41/40 3/41/40 2/40/39 
s 4
f 56/41/41 57/42/41 59/42/41 3/41/41 
s 2
f 57/43/42 58/44/42 60/44/42 59/43/42 
s 4
f 58/45/43 54/36/43 4/39/43 60/46/43 
# 33 polygons - 2 triangles

